<?xml version="1.0" encoding="utf-8" standalone="no"?>
<!DOCTYPE svg PUBLIC "-//W3C//DTD SVG 1.1//EN"
  "http://www.w3.org/Graphics/SVG/1.1/DTD/svg11.dtd">
<svg xmlns:xlink="http://www.w3.org/1999/xlink" width="864pt" height="432pt" viewBox="0 0 864 432" xmlns="http://www.w3.org/2000/svg" version="1.1">
 <metadata>
  <rdf:RDF xmlns:dc="http://purl.org/dc/elements/1.1/" xmlns:cc="http://creativecommons.org/ns#" xmlns:rdf="http://www.w3.org/1999/02/22-rdf-syntax-ns#">
   <cc:Work>
    <dc:type rdf:resource="http://purl.org/dc/dcmitype/StillImage"/>
    <dc:date>2025-03-08T12:09:32.755618</dc:date>
    <dc:format>image/svg+xml</dc:format>
    <dc:creator>
     <cc:Agent>
      <dc:title>Matplotlib v3.10.1, https://matplotlib.org/</dc:title>
     </cc:Agent>
    </dc:creator>
   </cc:Work>
  </rdf:RDF>
 </metadata>
 <defs>
  <style type="text/css">*{stroke-linejoin: round; stroke-linecap: butt}</style>
 </defs>
 <g id="figure_1">
  <g id="patch_1">
   <path d="M 0 432 
L 864 432 
L 864 0 
L 0 0 
z
" style="fill: #ffffff"/>
  </g>
  <g id="axes_1">
   <g id="patch_2">
    <path d="M 62.39 390.04 
L 429.795 390.04 
L 429.795 26.88 
L 62.39 26.88 
z
" style="fill: #ffffff"/>
   </g>
   <g id="matplotlib.axis_1">
    <g id="xtick_1">
     <g id="line2d_1">
      <defs>
       <path id="m5f7a18bc5b" d="M 0 0 
L 0 3.5 
" style="stroke: #000000; stroke-width: 0.8"/>
      </defs>
      <g>
       <use xlink:href="#m5f7a18bc5b" x="79.090227" y="390.04" style="stroke: #000000; stroke-width: 0.8"/>
      </g>
     </g>
     <g id="text_1">
      <!-- 0 -->
      <g transform="translate(75.908977 404.638438) scale(0.1 -0.1)">
       <defs>
        <path id="DejaVuSans-30" d="M 2034 4250 
Q 1547 4250 1301 3770 
Q 1056 3291 1056 2328 
Q 1056 1369 1301 889 
Q 1547 409 2034 409 
Q 2525 409 2770 889 
Q 3016 1369 3016 2328 
Q 3016 3291 2770 3770 
Q 2525 4250 2034 4250 
z
M 2034 4750 
Q 2819 4750 3233 4129 
Q 3647 3509 3647 2328 
Q 3647 1150 3233 529 
Q 2819 -91 2034 -91 
Q 1250 -91 836 529 
Q 422 1150 422 2328 
Q 422 3509 836 4129 
Q 1250 4750 2034 4750 
z
" transform="scale(0.015625)"/>
       </defs>
       <use xlink:href="#DejaVuSans-30"/>
      </g>
     </g>
    </g>
    <g id="xtick_2">
     <g id="line2d_2">
      <g>
       <use xlink:href="#m5f7a18bc5b" x="132.961928" y="390.04" style="stroke: #000000; stroke-width: 0.8"/>
      </g>
     </g>
     <g id="text_2">
      <!-- 20 -->
      <g transform="translate(126.599428 404.638438) scale(0.1 -0.1)">
       <defs>
        <path id="DejaVuSans-32" d="M 1228 531 
L 3431 531 
L 3431 0 
L 469 0 
L 469 531 
Q 828 903 1448 1529 
Q 2069 2156 2228 2338 
Q 2531 2678 2651 2914 
Q 2772 3150 2772 3378 
Q 2772 3750 2511 3984 
Q 2250 4219 1831 4219 
Q 1534 4219 1204 4116 
Q 875 4013 500 3803 
L 500 4441 
Q 881 4594 1212 4672 
Q 1544 4750 1819 4750 
Q 2544 4750 2975 4387 
Q 3406 4025 3406 3419 
Q 3406 3131 3298 2873 
Q 3191 2616 2906 2266 
Q 2828 2175 2409 1742 
Q 1991 1309 1228 531 
z
" transform="scale(0.015625)"/>
       </defs>
       <use xlink:href="#DejaVuSans-32"/>
       <use xlink:href="#DejaVuSans-30" transform="translate(63.623047 0)"/>
      </g>
     </g>
    </g>
    <g id="xtick_3">
     <g id="line2d_3">
      <g>
       <use xlink:href="#m5f7a18bc5b" x="186.833629" y="390.04" style="stroke: #000000; stroke-width: 0.8"/>
      </g>
     </g>
     <g id="text_3">
      <!-- 40 -->
      <g transform="translate(180.471129 404.638438) scale(0.1 -0.1)">
       <defs>
        <path id="DejaVuSans-34" d="M 2419 4116 
L 825 1625 
L 2419 1625 
L 2419 4116 
z
M 2253 4666 
L 3047 4666 
L 3047 1625 
L 3713 1625 
L 3713 1100 
L 3047 1100 
L 3047 0 
L 2419 0 
L 2419 1100 
L 313 1100 
L 313 1709 
L 2253 4666 
z
" transform="scale(0.015625)"/>
       </defs>
       <use xlink:href="#DejaVuSans-34"/>
       <use xlink:href="#DejaVuSans-30" transform="translate(63.623047 0)"/>
      </g>
     </g>
    </g>
    <g id="xtick_4">
     <g id="line2d_4">
      <g>
       <use xlink:href="#m5f7a18bc5b" x="240.70533" y="390.04" style="stroke: #000000; stroke-width: 0.8"/>
      </g>
     </g>
     <g id="text_4">
      <!-- 60 -->
      <g transform="translate(234.34283 404.638438) scale(0.1 -0.1)">
       <defs>
        <path id="DejaVuSans-36" d="M 2113 2584 
Q 1688 2584 1439 2293 
Q 1191 2003 1191 1497 
Q 1191 994 1439 701 
Q 1688 409 2113 409 
Q 2538 409 2786 701 
Q 3034 994 3034 1497 
Q 3034 2003 2786 2293 
Q 2538 2584 2113 2584 
z
M 3366 4563 
L 3366 3988 
Q 3128 4100 2886 4159 
Q 2644 4219 2406 4219 
Q 1781 4219 1451 3797 
Q 1122 3375 1075 2522 
Q 1259 2794 1537 2939 
Q 1816 3084 2150 3084 
Q 2853 3084 3261 2657 
Q 3669 2231 3669 1497 
Q 3669 778 3244 343 
Q 2819 -91 2113 -91 
Q 1303 -91 875 529 
Q 447 1150 447 2328 
Q 447 3434 972 4092 
Q 1497 4750 2381 4750 
Q 2619 4750 2861 4703 
Q 3103 4656 3366 4563 
z
" transform="scale(0.015625)"/>
       </defs>
       <use xlink:href="#DejaVuSans-36"/>
       <use xlink:href="#DejaVuSans-30" transform="translate(63.623047 0)"/>
      </g>
     </g>
    </g>
    <g id="xtick_5">
     <g id="line2d_5">
      <g>
       <use xlink:href="#m5f7a18bc5b" x="294.577031" y="390.04" style="stroke: #000000; stroke-width: 0.8"/>
      </g>
     </g>
     <g id="text_5">
      <!-- 80 -->
      <g transform="translate(288.214531 404.638438) scale(0.1 -0.1)">
       <defs>
        <path id="DejaVuSans-38" d="M 2034 2216 
Q 1584 2216 1326 1975 
Q 1069 1734 1069 1313 
Q 1069 891 1326 650 
Q 1584 409 2034 409 
Q 2484 409 2743 651 
Q 3003 894 3003 1313 
Q 3003 1734 2745 1975 
Q 2488 2216 2034 2216 
z
M 1403 2484 
Q 997 2584 770 2862 
Q 544 3141 544 3541 
Q 544 4100 942 4425 
Q 1341 4750 2034 4750 
Q 2731 4750 3128 4425 
Q 3525 4100 3525 3541 
Q 3525 3141 3298 2862 
Q 3072 2584 2669 2484 
Q 3125 2378 3379 2068 
Q 3634 1759 3634 1313 
Q 3634 634 3220 271 
Q 2806 -91 2034 -91 
Q 1263 -91 848 271 
Q 434 634 434 1313 
Q 434 1759 690 2068 
Q 947 2378 1403 2484 
z
M 1172 3481 
Q 1172 3119 1398 2916 
Q 1625 2713 2034 2713 
Q 2441 2713 2670 2916 
Q 2900 3119 2900 3481 
Q 2900 3844 2670 4047 
Q 2441 4250 2034 4250 
Q 1625 4250 1398 4047 
Q 1172 3844 1172 3481 
z
" transform="scale(0.015625)"/>
       </defs>
       <use xlink:href="#DejaVuSans-38"/>
       <use xlink:href="#DejaVuSans-30" transform="translate(63.623047 0)"/>
      </g>
     </g>
    </g>
    <g id="xtick_6">
     <g id="line2d_6">
      <g>
       <use xlink:href="#m5f7a18bc5b" x="348.448732" y="390.04" style="stroke: #000000; stroke-width: 0.8"/>
      </g>
     </g>
     <g id="text_6">
      <!-- 100 -->
      <g transform="translate(338.904982 404.638438) scale(0.1 -0.1)">
       <defs>
        <path id="DejaVuSans-31" d="M 794 531 
L 1825 531 
L 1825 4091 
L 703 3866 
L 703 4441 
L 1819 4666 
L 2450 4666 
L 2450 531 
L 3481 531 
L 3481 0 
L 794 0 
L 794 531 
z
" transform="scale(0.015625)"/>
       </defs>
       <use xlink:href="#DejaVuSans-31"/>
       <use xlink:href="#DejaVuSans-30" transform="translate(63.623047 0)"/>
       <use xlink:href="#DejaVuSans-30" transform="translate(127.246094 0)"/>
      </g>
     </g>
    </g>
    <g id="xtick_7">
     <g id="line2d_7">
      <g>
       <use xlink:href="#m5f7a18bc5b" x="402.320433" y="390.04" style="stroke: #000000; stroke-width: 0.8"/>
      </g>
     </g>
     <g id="text_7">
      <!-- 120 -->
      <g transform="translate(392.776683 404.638438) scale(0.1 -0.1)">
       <use xlink:href="#DejaVuSans-31"/>
       <use xlink:href="#DejaVuSans-32" transform="translate(63.623047 0)"/>
       <use xlink:href="#DejaVuSans-30" transform="translate(127.246094 0)"/>
      </g>
     </g>
    </g>
    <g id="text_8">
     <!-- Generations -->
     <g transform="translate(215.594844 418.316562) scale(0.1 -0.1)">
      <defs>
       <path id="DejaVuSans-47" d="M 3809 666 
L 3809 1919 
L 2778 1919 
L 2778 2438 
L 4434 2438 
L 4434 434 
Q 4069 175 3628 42 
Q 3188 -91 2688 -91 
Q 1594 -91 976 548 
Q 359 1188 359 2328 
Q 359 3472 976 4111 
Q 1594 4750 2688 4750 
Q 3144 4750 3555 4637 
Q 3966 4525 4313 4306 
L 4313 3634 
Q 3963 3931 3569 4081 
Q 3175 4231 2741 4231 
Q 1884 4231 1454 3753 
Q 1025 3275 1025 2328 
Q 1025 1384 1454 906 
Q 1884 428 2741 428 
Q 3075 428 3337 486 
Q 3600 544 3809 666 
z
" transform="scale(0.015625)"/>
       <path id="DejaVuSans-65" d="M 3597 1894 
L 3597 1613 
L 953 1613 
Q 991 1019 1311 708 
Q 1631 397 2203 397 
Q 2534 397 2845 478 
Q 3156 559 3463 722 
L 3463 178 
Q 3153 47 2828 -22 
Q 2503 -91 2169 -91 
Q 1331 -91 842 396 
Q 353 884 353 1716 
Q 353 2575 817 3079 
Q 1281 3584 2069 3584 
Q 2775 3584 3186 3129 
Q 3597 2675 3597 1894 
z
M 3022 2063 
Q 3016 2534 2758 2815 
Q 2500 3097 2075 3097 
Q 1594 3097 1305 2825 
Q 1016 2553 972 2059 
L 3022 2063 
z
" transform="scale(0.015625)"/>
       <path id="DejaVuSans-6e" d="M 3513 2113 
L 3513 0 
L 2938 0 
L 2938 2094 
Q 2938 2591 2744 2837 
Q 2550 3084 2163 3084 
Q 1697 3084 1428 2787 
Q 1159 2491 1159 1978 
L 1159 0 
L 581 0 
L 581 3500 
L 1159 3500 
L 1159 2956 
Q 1366 3272 1645 3428 
Q 1925 3584 2291 3584 
Q 2894 3584 3203 3211 
Q 3513 2838 3513 2113 
z
" transform="scale(0.015625)"/>
       <path id="DejaVuSans-72" d="M 2631 2963 
Q 2534 3019 2420 3045 
Q 2306 3072 2169 3072 
Q 1681 3072 1420 2755 
Q 1159 2438 1159 1844 
L 1159 0 
L 581 0 
L 581 3500 
L 1159 3500 
L 1159 2956 
Q 1341 3275 1631 3429 
Q 1922 3584 2338 3584 
Q 2397 3584 2469 3576 
Q 2541 3569 2628 3553 
L 2631 2963 
z
" transform="scale(0.015625)"/>
       <path id="DejaVuSans-61" d="M 2194 1759 
Q 1497 1759 1228 1600 
Q 959 1441 959 1056 
Q 959 750 1161 570 
Q 1363 391 1709 391 
Q 2188 391 2477 730 
Q 2766 1069 2766 1631 
L 2766 1759 
L 2194 1759 
z
M 3341 1997 
L 3341 0 
L 2766 0 
L 2766 531 
Q 2569 213 2275 61 
Q 1981 -91 1556 -91 
Q 1019 -91 701 211 
Q 384 513 384 1019 
Q 384 1609 779 1909 
Q 1175 2209 1959 2209 
L 2766 2209 
L 2766 2266 
Q 2766 2663 2505 2880 
Q 2244 3097 1772 3097 
Q 1472 3097 1187 3025 
Q 903 2953 641 2809 
L 641 3341 
Q 956 3463 1253 3523 
Q 1550 3584 1831 3584 
Q 2591 3584 2966 3190 
Q 3341 2797 3341 1997 
z
" transform="scale(0.015625)"/>
       <path id="DejaVuSans-74" d="M 1172 4494 
L 1172 3500 
L 2356 3500 
L 2356 3053 
L 1172 3053 
L 1172 1153 
Q 1172 725 1289 603 
Q 1406 481 1766 481 
L 2356 481 
L 2356 0 
L 1766 0 
Q 1100 0 847 248 
Q 594 497 594 1153 
L 594 3053 
L 172 3053 
L 172 3500 
L 594 3500 
L 594 4494 
L 1172 4494 
z
" transform="scale(0.015625)"/>
       <path id="DejaVuSans-69" d="M 603 3500 
L 1178 3500 
L 1178 0 
L 603 0 
L 603 3500 
z
M 603 4863 
L 1178 4863 
L 1178 4134 
L 603 4134 
L 603 4863 
z
" transform="scale(0.015625)"/>
       <path id="DejaVuSans-6f" d="M 1959 3097 
Q 1497 3097 1228 2736 
Q 959 2375 959 1747 
Q 959 1119 1226 758 
Q 1494 397 1959 397 
Q 2419 397 2687 759 
Q 2956 1122 2956 1747 
Q 2956 2369 2687 2733 
Q 2419 3097 1959 3097 
z
M 1959 3584 
Q 2709 3584 3137 3096 
Q 3566 2609 3566 1747 
Q 3566 888 3137 398 
Q 2709 -91 1959 -91 
Q 1206 -91 779 398 
Q 353 888 353 1747 
Q 353 2609 779 3096 
Q 1206 3584 1959 3584 
z
" transform="scale(0.015625)"/>
       <path id="DejaVuSans-73" d="M 2834 3397 
L 2834 2853 
Q 2591 2978 2328 3040 
Q 2066 3103 1784 3103 
Q 1356 3103 1142 2972 
Q 928 2841 928 2578 
Q 928 2378 1081 2264 
Q 1234 2150 1697 2047 
L 1894 2003 
Q 2506 1872 2764 1633 
Q 3022 1394 3022 966 
Q 3022 478 2636 193 
Q 2250 -91 1575 -91 
Q 1294 -91 989 -36 
Q 684 19 347 128 
L 347 722 
Q 666 556 975 473 
Q 1284 391 1588 391 
Q 1994 391 2212 530 
Q 2431 669 2431 922 
Q 2431 1156 2273 1281 
Q 2116 1406 1581 1522 
L 1381 1569 
Q 847 1681 609 1914 
Q 372 2147 372 2553 
Q 372 3047 722 3315 
Q 1072 3584 1716 3584 
Q 2034 3584 2315 3537 
Q 2597 3491 2834 3397 
z
" transform="scale(0.015625)"/>
      </defs>
      <use xlink:href="#DejaVuSans-47"/>
      <use xlink:href="#DejaVuSans-65" transform="translate(77.490234 0)"/>
      <use xlink:href="#DejaVuSans-6e" transform="translate(139.013672 0)"/>
      <use xlink:href="#DejaVuSans-65" transform="translate(202.392578 0)"/>
      <use xlink:href="#DejaVuSans-72" transform="translate(263.916016 0)"/>
      <use xlink:href="#DejaVuSans-61" transform="translate(305.029297 0)"/>
      <use xlink:href="#DejaVuSans-74" transform="translate(366.308594 0)"/>
      <use xlink:href="#DejaVuSans-69" transform="translate(405.517578 0)"/>
      <use xlink:href="#DejaVuSans-6f" transform="translate(433.300781 0)"/>
      <use xlink:href="#DejaVuSans-6e" transform="translate(494.482422 0)"/>
      <use xlink:href="#DejaVuSans-73" transform="translate(557.861328 0)"/>
     </g>
    </g>
   </g>
   <g id="matplotlib.axis_2">
    <g id="ytick_1">
     <g id="line2d_8">
      <defs>
       <path id="md6928af417" d="M 0 0 
L -3.5 0 
" style="stroke: #000000; stroke-width: 0.8"/>
      </defs>
      <g>
       <use xlink:href="#md6928af417" x="62.39" y="355.191313" style="stroke: #000000; stroke-width: 0.8"/>
      </g>
     </g>
     <g id="text_9">
      <!-- −2.35 -->
      <g transform="translate(24.744688 358.990532) scale(0.1 -0.1)">
       <defs>
        <path id="DejaVuSans-2212" d="M 678 2272 
L 4684 2272 
L 4684 1741 
L 678 1741 
L 678 2272 
z
" transform="scale(0.015625)"/>
        <path id="DejaVuSans-2e" d="M 684 794 
L 1344 794 
L 1344 0 
L 684 0 
L 684 794 
z
" transform="scale(0.015625)"/>
        <path id="DejaVuSans-33" d="M 2597 2516 
Q 3050 2419 3304 2112 
Q 3559 1806 3559 1356 
Q 3559 666 3084 287 
Q 2609 -91 1734 -91 
Q 1441 -91 1130 -33 
Q 819 25 488 141 
L 488 750 
Q 750 597 1062 519 
Q 1375 441 1716 441 
Q 2309 441 2620 675 
Q 2931 909 2931 1356 
Q 2931 1769 2642 2001 
Q 2353 2234 1838 2234 
L 1294 2234 
L 1294 2753 
L 1863 2753 
Q 2328 2753 2575 2939 
Q 2822 3125 2822 3475 
Q 2822 3834 2567 4026 
Q 2313 4219 1838 4219 
Q 1578 4219 1281 4162 
Q 984 4106 628 3988 
L 628 4550 
Q 988 4650 1302 4700 
Q 1616 4750 1894 4750 
Q 2613 4750 3031 4423 
Q 3450 4097 3450 3541 
Q 3450 3153 3228 2886 
Q 3006 2619 2597 2516 
z
" transform="scale(0.015625)"/>
        <path id="DejaVuSans-35" d="M 691 4666 
L 3169 4666 
L 3169 4134 
L 1269 4134 
L 1269 2991 
Q 1406 3038 1543 3061 
Q 1681 3084 1819 3084 
Q 2600 3084 3056 2656 
Q 3513 2228 3513 1497 
Q 3513 744 3044 326 
Q 2575 -91 1722 -91 
Q 1428 -91 1123 -41 
Q 819 9 494 109 
L 494 744 
Q 775 591 1075 516 
Q 1375 441 1709 441 
Q 2250 441 2565 725 
Q 2881 1009 2881 1497 
Q 2881 1984 2565 2268 
Q 2250 2553 1709 2553 
Q 1456 2553 1204 2497 
Q 953 2441 691 2322 
L 691 4666 
z
" transform="scale(0.015625)"/>
       </defs>
       <use xlink:href="#DejaVuSans-2212"/>
       <use xlink:href="#DejaVuSans-32" transform="translate(83.789062 0)"/>
       <use xlink:href="#DejaVuSans-2e" transform="translate(147.412109 0)"/>
       <use xlink:href="#DejaVuSans-33" transform="translate(179.199219 0)"/>
       <use xlink:href="#DejaVuSans-35" transform="translate(242.822266 0)"/>
      </g>
     </g>
    </g>
    <g id="ytick_2">
     <g id="line2d_9">
      <g>
       <use xlink:href="#md6928af417" x="62.39" y="281.825657" style="stroke: #000000; stroke-width: 0.8"/>
      </g>
     </g>
     <g id="text_10">
      <!-- −2.30 -->
      <g transform="translate(24.744688 285.624875) scale(0.1 -0.1)">
       <use xlink:href="#DejaVuSans-2212"/>
       <use xlink:href="#DejaVuSans-32" transform="translate(83.789062 0)"/>
       <use xlink:href="#DejaVuSans-2e" transform="translate(147.412109 0)"/>
       <use xlink:href="#DejaVuSans-33" transform="translate(179.199219 0)"/>
       <use xlink:href="#DejaVuSans-30" transform="translate(242.822266 0)"/>
      </g>
     </g>
    </g>
    <g id="ytick_3">
     <g id="line2d_10">
      <g>
       <use xlink:href="#md6928af417" x="62.39" y="208.46" style="stroke: #000000; stroke-width: 0.8"/>
      </g>
     </g>
     <g id="text_11">
      <!-- −2.25 -->
      <g transform="translate(24.744688 212.259219) scale(0.1 -0.1)">
       <use xlink:href="#DejaVuSans-2212"/>
       <use xlink:href="#DejaVuSans-32" transform="translate(83.789062 0)"/>
       <use xlink:href="#DejaVuSans-2e" transform="translate(147.412109 0)"/>
       <use xlink:href="#DejaVuSans-32" transform="translate(179.199219 0)"/>
       <use xlink:href="#DejaVuSans-35" transform="translate(242.822266 0)"/>
      </g>
     </g>
    </g>
    <g id="ytick_4">
     <g id="line2d_11">
      <g>
       <use xlink:href="#md6928af417" x="62.39" y="135.094343" style="stroke: #000000; stroke-width: 0.8"/>
      </g>
     </g>
     <g id="text_12">
      <!-- −2.20 -->
      <g transform="translate(24.744688 138.893562) scale(0.1 -0.1)">
       <use xlink:href="#DejaVuSans-2212"/>
       <use xlink:href="#DejaVuSans-32" transform="translate(83.789062 0)"/>
       <use xlink:href="#DejaVuSans-2e" transform="translate(147.412109 0)"/>
       <use xlink:href="#DejaVuSans-32" transform="translate(179.199219 0)"/>
       <use xlink:href="#DejaVuSans-30" transform="translate(242.822266 0)"/>
      </g>
     </g>
    </g>
    <g id="ytick_5">
     <g id="line2d_12">
      <g>
       <use xlink:href="#md6928af417" x="62.39" y="61.728687" style="stroke: #000000; stroke-width: 0.8"/>
      </g>
     </g>
     <g id="text_13">
      <!-- −2.15 -->
      <g transform="translate(24.744688 65.527906) scale(0.1 -0.1)">
       <use xlink:href="#DejaVuSans-2212"/>
       <use xlink:href="#DejaVuSans-32" transform="translate(83.789062 0)"/>
       <use xlink:href="#DejaVuSans-2e" transform="translate(147.412109 0)"/>
       <use xlink:href="#DejaVuSans-31" transform="translate(179.199219 0)"/>
       <use xlink:href="#DejaVuSans-35" transform="translate(242.822266 0)"/>
      </g>
     </g>
    </g>
    <g id="text_14">
     <!-- Number of Lines Covered / Number of Tests -->
     <g transform="translate(18.665 317.334219) rotate(-90) scale(0.1 -0.1)">
      <defs>
       <path id="DejaVuSans-4e" d="M 628 4666 
L 1478 4666 
L 3547 763 
L 3547 4666 
L 4159 4666 
L 4159 0 
L 3309 0 
L 1241 3903 
L 1241 0 
L 628 0 
L 628 4666 
z
" transform="scale(0.015625)"/>
       <path id="DejaVuSans-75" d="M 544 1381 
L 544 3500 
L 1119 3500 
L 1119 1403 
Q 1119 906 1312 657 
Q 1506 409 1894 409 
Q 2359 409 2629 706 
Q 2900 1003 2900 1516 
L 2900 3500 
L 3475 3500 
L 3475 0 
L 2900 0 
L 2900 538 
Q 2691 219 2414 64 
Q 2138 -91 1772 -91 
Q 1169 -91 856 284 
Q 544 659 544 1381 
z
M 1991 3584 
L 1991 3584 
z
" transform="scale(0.015625)"/>
       <path id="DejaVuSans-6d" d="M 3328 2828 
Q 3544 3216 3844 3400 
Q 4144 3584 4550 3584 
Q 5097 3584 5394 3201 
Q 5691 2819 5691 2113 
L 5691 0 
L 5113 0 
L 5113 2094 
Q 5113 2597 4934 2840 
Q 4756 3084 4391 3084 
Q 3944 3084 3684 2787 
Q 3425 2491 3425 1978 
L 3425 0 
L 2847 0 
L 2847 2094 
Q 2847 2600 2669 2842 
Q 2491 3084 2119 3084 
Q 1678 3084 1418 2786 
Q 1159 2488 1159 1978 
L 1159 0 
L 581 0 
L 581 3500 
L 1159 3500 
L 1159 2956 
Q 1356 3278 1631 3431 
Q 1906 3584 2284 3584 
Q 2666 3584 2933 3390 
Q 3200 3197 3328 2828 
z
" transform="scale(0.015625)"/>
       <path id="DejaVuSans-62" d="M 3116 1747 
Q 3116 2381 2855 2742 
Q 2594 3103 2138 3103 
Q 1681 3103 1420 2742 
Q 1159 2381 1159 1747 
Q 1159 1113 1420 752 
Q 1681 391 2138 391 
Q 2594 391 2855 752 
Q 3116 1113 3116 1747 
z
M 1159 2969 
Q 1341 3281 1617 3432 
Q 1894 3584 2278 3584 
Q 2916 3584 3314 3078 
Q 3713 2572 3713 1747 
Q 3713 922 3314 415 
Q 2916 -91 2278 -91 
Q 1894 -91 1617 61 
Q 1341 213 1159 525 
L 1159 0 
L 581 0 
L 581 4863 
L 1159 4863 
L 1159 2969 
z
" transform="scale(0.015625)"/>
       <path id="DejaVuSans-20" transform="scale(0.015625)"/>
       <path id="DejaVuSans-66" d="M 2375 4863 
L 2375 4384 
L 1825 4384 
Q 1516 4384 1395 4259 
Q 1275 4134 1275 3809 
L 1275 3500 
L 2222 3500 
L 2222 3053 
L 1275 3053 
L 1275 0 
L 697 0 
L 697 3053 
L 147 3053 
L 147 3500 
L 697 3500 
L 697 3744 
Q 697 4328 969 4595 
Q 1241 4863 1831 4863 
L 2375 4863 
z
" transform="scale(0.015625)"/>
       <path id="DejaVuSans-4c" d="M 628 4666 
L 1259 4666 
L 1259 531 
L 3531 531 
L 3531 0 
L 628 0 
L 628 4666 
z
" transform="scale(0.015625)"/>
       <path id="DejaVuSans-43" d="M 4122 4306 
L 4122 3641 
Q 3803 3938 3442 4084 
Q 3081 4231 2675 4231 
Q 1875 4231 1450 3742 
Q 1025 3253 1025 2328 
Q 1025 1406 1450 917 
Q 1875 428 2675 428 
Q 3081 428 3442 575 
Q 3803 722 4122 1019 
L 4122 359 
Q 3791 134 3420 21 
Q 3050 -91 2638 -91 
Q 1578 -91 968 557 
Q 359 1206 359 2328 
Q 359 3453 968 4101 
Q 1578 4750 2638 4750 
Q 3056 4750 3426 4639 
Q 3797 4528 4122 4306 
z
" transform="scale(0.015625)"/>
       <path id="DejaVuSans-76" d="M 191 3500 
L 800 3500 
L 1894 563 
L 2988 3500 
L 3597 3500 
L 2284 0 
L 1503 0 
L 191 3500 
z
" transform="scale(0.015625)"/>
       <path id="DejaVuSans-64" d="M 2906 2969 
L 2906 4863 
L 3481 4863 
L 3481 0 
L 2906 0 
L 2906 525 
Q 2725 213 2448 61 
Q 2172 -91 1784 -91 
Q 1150 -91 751 415 
Q 353 922 353 1747 
Q 353 2572 751 3078 
Q 1150 3584 1784 3584 
Q 2172 3584 2448 3432 
Q 2725 3281 2906 2969 
z
M 947 1747 
Q 947 1113 1208 752 
Q 1469 391 1925 391 
Q 2381 391 2643 752 
Q 2906 1113 2906 1747 
Q 2906 2381 2643 2742 
Q 2381 3103 1925 3103 
Q 1469 3103 1208 2742 
Q 947 2381 947 1747 
z
" transform="scale(0.015625)"/>
       <path id="DejaVuSans-2f" d="M 1625 4666 
L 2156 4666 
L 531 -594 
L 0 -594 
L 1625 4666 
z
" transform="scale(0.015625)"/>
       <path id="DejaVuSans-54" d="M -19 4666 
L 3928 4666 
L 3928 4134 
L 2272 4134 
L 2272 0 
L 1638 0 
L 1638 4134 
L -19 4134 
L -19 4666 
z
" transform="scale(0.015625)"/>
      </defs>
      <use xlink:href="#DejaVuSans-4e"/>
      <use xlink:href="#DejaVuSans-75" transform="translate(74.804688 0)"/>
      <use xlink:href="#DejaVuSans-6d" transform="translate(138.183594 0)"/>
      <use xlink:href="#DejaVuSans-62" transform="translate(235.595703 0)"/>
      <use xlink:href="#DejaVuSans-65" transform="translate(299.072266 0)"/>
      <use xlink:href="#DejaVuSans-72" transform="translate(360.595703 0)"/>
      <use xlink:href="#DejaVuSans-20" transform="translate(401.708984 0)"/>
      <use xlink:href="#DejaVuSans-6f" transform="translate(433.496094 0)"/>
      <use xlink:href="#DejaVuSans-66" transform="translate(494.677734 0)"/>
      <use xlink:href="#DejaVuSans-20" transform="translate(529.882812 0)"/>
      <use xlink:href="#DejaVuSans-4c" transform="translate(561.669922 0)"/>
      <use xlink:href="#DejaVuSans-69" transform="translate(617.382812 0)"/>
      <use xlink:href="#DejaVuSans-6e" transform="translate(645.166016 0)"/>
      <use xlink:href="#DejaVuSans-65" transform="translate(708.544922 0)"/>
      <use xlink:href="#DejaVuSans-73" transform="translate(770.068359 0)"/>
      <use xlink:href="#DejaVuSans-20" transform="translate(822.167969 0)"/>
      <use xlink:href="#DejaVuSans-43" transform="translate(853.955078 0)"/>
      <use xlink:href="#DejaVuSans-6f" transform="translate(923.779297 0)"/>
      <use xlink:href="#DejaVuSans-76" transform="translate(984.960938 0)"/>
      <use xlink:href="#DejaVuSans-65" transform="translate(1044.140625 0)"/>
      <use xlink:href="#DejaVuSans-72" transform="translate(1105.664062 0)"/>
      <use xlink:href="#DejaVuSans-65" transform="translate(1144.527344 0)"/>
      <use xlink:href="#DejaVuSans-64" transform="translate(1206.050781 0)"/>
      <use xlink:href="#DejaVuSans-20" transform="translate(1269.527344 0)"/>
      <use xlink:href="#DejaVuSans-2f" transform="translate(1301.314453 0)"/>
      <use xlink:href="#DejaVuSans-20" transform="translate(1335.005859 0)"/>
      <use xlink:href="#DejaVuSans-4e" transform="translate(1366.792969 0)"/>
      <use xlink:href="#DejaVuSans-75" transform="translate(1441.597656 0)"/>
      <use xlink:href="#DejaVuSans-6d" transform="translate(1504.976562 0)"/>
      <use xlink:href="#DejaVuSans-62" transform="translate(1602.388672 0)"/>
      <use xlink:href="#DejaVuSans-65" transform="translate(1665.865234 0)"/>
      <use xlink:href="#DejaVuSans-72" transform="translate(1727.388672 0)"/>
      <use xlink:href="#DejaVuSans-20" transform="translate(1768.501953 0)"/>
      <use xlink:href="#DejaVuSans-6f" transform="translate(1800.289062 0)"/>
      <use xlink:href="#DejaVuSans-66" transform="translate(1861.470703 0)"/>
      <use xlink:href="#DejaVuSans-20" transform="translate(1896.675781 0)"/>
      <use xlink:href="#DejaVuSans-54" transform="translate(1928.462891 0)"/>
      <use xlink:href="#DejaVuSans-65" transform="translate(1972.546875 0)"/>
      <use xlink:href="#DejaVuSans-73" transform="translate(2034.070312 0)"/>
      <use xlink:href="#DejaVuSans-74" transform="translate(2086.169922 0)"/>
      <use xlink:href="#DejaVuSans-73" transform="translate(2125.378906 0)"/>
     </g>
    </g>
   </g>
   <g id="line2d_13">
    <path d="M 79.090227 208.46 
L 81.783812 208.46 
L 84.477397 208.46 
L 87.170982 208.46 
L 89.864567 208.46 
L 92.558152 208.46 
L 95.251738 208.46 
L 97.945323 208.46 
L 100.638908 208.46 
L 103.332493 208.46 
L 106.026078 208.46 
L 108.719663 208.46 
L 111.413248 208.46 
L 114.106833 208.46 
L 116.800418 208.46 
L 119.494003 208.46 
L 122.187588 208.46 
L 124.881173 208.46 
L 127.574758 208.46 
L 130.268343 208.46 
L 132.961928 208.46 
L 135.655513 208.46 
L 138.349098 208.46 
L 141.042683 208.46 
L 143.736268 208.46 
L 146.429853 208.46 
L 149.123438 208.46 
L 151.817023 208.46 
L 154.510609 208.46 
L 157.204194 208.46 
L 159.897779 208.46 
L 162.591364 208.46 
L 165.284949 208.46 
L 167.978534 208.46 
L 170.672119 208.46 
L 173.365704 208.46 
L 176.059289 208.46 
L 178.752874 208.46 
L 181.446459 208.46 
L 184.140044 208.46 
L 186.833629 208.46 
L 189.527214 208.46 
L 192.220799 208.46 
L 194.914384 208.46 
L 197.607969 208.46 
L 200.301554 208.46 
L 202.995139 208.46 
L 205.688724 208.46 
L 208.382309 208.46 
L 211.075894 208.46 
L 213.769479 208.46 
L 216.463065 208.46 
L 219.15665 208.46 
L 221.850235 208.46 
L 224.54382 208.46 
L 227.237405 208.46 
L 229.93099 208.46 
L 232.624575 208.46 
L 235.31816 208.46 
L 238.011745 208.46 
L 240.70533 208.46 
L 243.398915 208.46 
L 246.0925 208.46 
L 248.786085 208.46 
L 251.47967 208.46 
L 254.173255 208.46 
L 256.86684 208.46 
L 259.560425 208.46 
L 262.25401 208.46 
L 264.947595 208.46 
L 267.64118 208.46 
L 270.334765 208.46 
L 273.02835 208.46 
L 275.721935 208.46 
L 278.415521 208.46 
L 281.109106 208.46 
L 283.802691 208.46 
L 286.496276 208.46 
L 289.189861 208.46 
L 291.883446 208.46 
L 294.577031 208.46 
L 297.270616 208.46 
L 299.964201 208.46 
L 302.657786 208.46 
L 305.351371 208.46 
L 308.044956 208.46 
L 310.738541 208.46 
L 313.432126 208.46 
L 316.125711 208.46 
L 318.819296 208.46 
L 321.512881 208.46 
L 324.206466 208.46 
L 326.900051 208.46 
L 329.593636 208.46 
L 332.287221 208.46 
L 334.980806 208.46 
L 337.674391 208.46 
L 340.367977 208.46 
L 343.061562 208.46 
L 345.755147 208.46 
L 348.448732 208.46 
L 351.142317 208.46 
L 353.835902 208.46 
L 356.529487 208.46 
L 359.223072 208.46 
L 361.916657 208.46 
L 364.610242 208.46 
L 367.303827 208.46 
L 369.997412 208.46 
L 372.690997 208.46 
L 375.384582 208.46 
L 378.078167 208.46 
L 380.771752 208.46 
L 383.465337 208.46 
L 386.158922 208.46 
L 388.852507 208.46 
L 391.546092 208.46 
L 394.239677 208.46 
L 396.933262 208.46 
L 399.626848 208.46 
L 402.320433 208.46 
L 405.014018 208.46 
L 407.707603 208.46 
L 410.401188 208.46 
L 413.094773 208.46 
" clip-path="url(#p0d89c4c252)" style="fill: none; stroke: #1f77b4; stroke-width: 1.5; stroke-linecap: square"/>
   </g>
   <g id="line2d_14">
    <path d="M 79.090227 208.46 
L 81.783812 208.46 
L 84.477397 208.46 
L 87.170982 208.46 
L 89.864567 208.46 
L 92.558152 208.46 
L 95.251738 208.46 
L 97.945323 208.46 
L 100.638908 208.46 
L 103.332493 208.46 
L 106.026078 208.46 
L 108.719663 208.46 
L 111.413248 208.46 
L 114.106833 208.46 
L 116.800418 208.46 
L 119.494003 208.46 
L 122.187588 208.46 
L 124.881173 208.46 
L 127.574758 208.46 
L 130.268343 208.46 
L 132.961928 208.46 
L 135.655513 208.46 
L 138.349098 208.46 
L 141.042683 208.46 
L 143.736268 208.46 
L 146.429853 208.46 
L 149.123438 208.46 
L 151.817023 208.46 
L 154.510609 208.46 
L 157.204194 208.46 
L 159.897779 208.46 
L 162.591364 208.46 
L 165.284949 208.46 
L 167.978534 208.46 
L 170.672119 208.46 
L 173.365704 208.46 
L 176.059289 208.46 
L 178.752874 208.46 
L 181.446459 208.46 
L 184.140044 208.46 
L 186.833629 208.46 
L 189.527214 208.46 
L 192.220799 208.46 
L 194.914384 208.46 
L 197.607969 208.46 
L 200.301554 208.46 
L 202.995139 208.46 
L 205.688724 208.46 
L 208.382309 208.46 
L 211.075894 208.46 
L 213.769479 208.46 
L 216.463065 208.46 
L 219.15665 208.46 
L 221.850235 208.46 
L 224.54382 208.46 
L 227.237405 208.46 
L 229.93099 208.46 
L 232.624575 208.46 
L 235.31816 208.46 
L 238.011745 208.46 
L 240.70533 208.46 
L 243.398915 208.46 
L 246.0925 208.46 
L 248.786085 208.46 
L 251.47967 208.46 
L 254.173255 208.46 
L 256.86684 208.46 
L 259.560425 208.46 
L 262.25401 208.46 
L 264.947595 208.46 
L 267.64118 208.46 
L 270.334765 208.46 
L 273.02835 208.46 
L 275.721935 208.46 
L 278.415521 208.46 
L 281.109106 208.46 
L 283.802691 208.46 
L 286.496276 208.46 
L 289.189861 208.46 
L 291.883446 208.46 
L 294.577031 208.46 
L 297.270616 208.46 
L 299.964201 208.46 
L 302.657786 208.46 
L 305.351371 208.46 
L 308.044956 208.46 
L 310.738541 208.46 
L 313.432126 208.46 
L 316.125711 208.46 
L 318.819296 208.46 
L 321.512881 208.46 
L 324.206466 208.46 
L 326.900051 208.46 
L 329.593636 208.46 
L 332.287221 208.46 
L 334.980806 208.46 
L 337.674391 208.46 
L 340.367977 208.46 
L 343.061562 208.46 
L 345.755147 208.46 
L 348.448732 208.46 
L 351.142317 208.46 
L 353.835902 208.46 
L 356.529487 208.46 
L 359.223072 208.46 
L 361.916657 208.46 
L 364.610242 208.46 
L 367.303827 208.46 
L 369.997412 208.46 
L 372.690997 208.46 
L 375.384582 208.46 
L 378.078167 208.46 
L 380.771752 208.46 
L 383.465337 208.46 
L 386.158922 208.46 
L 388.852507 208.46 
L 391.546092 208.46 
L 394.239677 208.46 
L 396.933262 208.46 
L 399.626848 208.46 
L 402.320433 208.46 
L 405.014018 208.46 
L 407.707603 208.46 
L 410.401188 208.46 
L 413.094773 208.46 
" clip-path="url(#p0d89c4c252)" style="fill: none; stroke: #ff7f0e; stroke-width: 1.5; stroke-linecap: square"/>
   </g>
   <g id="line2d_15">
    <path d="M 79.090227 208.46 
L 81.783812 208.46 
L 84.477397 208.46 
L 87.170982 208.46 
L 89.864567 208.46 
L 92.558152 208.46 
L 95.251738 208.46 
L 97.945323 208.46 
L 100.638908 208.46 
L 103.332493 208.46 
L 106.026078 208.46 
L 108.719663 208.46 
L 111.413248 208.46 
L 114.106833 208.46 
L 116.800418 208.46 
L 119.494003 208.46 
L 122.187588 208.46 
L 124.881173 208.46 
L 127.574758 208.46 
L 130.268343 208.46 
L 132.961928 208.46 
L 135.655513 208.46 
L 138.349098 208.46 
L 141.042683 208.46 
L 143.736268 208.46 
L 146.429853 208.46 
L 149.123438 208.46 
L 151.817023 208.46 
L 154.510609 208.46 
L 157.204194 208.46 
L 159.897779 208.46 
L 162.591364 208.46 
L 165.284949 208.46 
L 167.978534 208.46 
L 170.672119 208.46 
L 173.365704 208.46 
L 176.059289 208.46 
L 178.752874 208.46 
L 181.446459 208.46 
L 184.140044 208.46 
L 186.833629 208.46 
L 189.527214 208.46 
L 192.220799 208.46 
L 194.914384 208.46 
L 197.607969 208.46 
L 200.301554 208.46 
L 202.995139 208.46 
L 205.688724 208.46 
L 208.382309 208.46 
L 211.075894 208.46 
L 213.769479 208.46 
L 216.463065 208.46 
L 219.15665 208.46 
L 221.850235 208.46 
L 224.54382 208.46 
L 227.237405 208.46 
L 229.93099 208.46 
L 232.624575 208.46 
L 235.31816 208.46 
L 238.011745 208.46 
L 240.70533 208.46 
L 243.398915 208.46 
L 246.0925 208.46 
L 248.786085 208.46 
L 251.47967 208.46 
L 254.173255 208.46 
L 256.86684 208.46 
L 259.560425 208.46 
L 262.25401 208.46 
L 264.947595 208.46 
L 267.64118 208.46 
L 270.334765 208.46 
L 273.02835 208.46 
L 275.721935 208.46 
L 278.415521 208.46 
L 281.109106 208.46 
L 283.802691 208.46 
L 286.496276 208.46 
L 289.189861 208.46 
L 291.883446 208.46 
L 294.577031 208.46 
L 297.270616 208.46 
L 299.964201 208.46 
L 302.657786 208.46 
L 305.351371 208.46 
L 308.044956 208.46 
L 310.738541 208.46 
L 313.432126 208.46 
L 316.125711 208.46 
L 318.819296 208.46 
L 321.512881 208.46 
L 324.206466 208.46 
L 326.900051 208.46 
L 329.593636 208.46 
L 332.287221 208.46 
L 334.980806 208.46 
L 337.674391 208.46 
L 340.367977 208.46 
L 343.061562 208.46 
L 345.755147 208.46 
L 348.448732 208.46 
L 351.142317 208.46 
L 353.835902 208.46 
L 356.529487 208.46 
L 359.223072 208.46 
L 361.916657 208.46 
L 364.610242 208.46 
L 367.303827 208.46 
L 369.997412 208.46 
L 372.690997 208.46 
L 375.384582 208.46 
L 378.078167 208.46 
L 380.771752 208.46 
L 383.465337 208.46 
L 386.158922 208.46 
L 388.852507 208.46 
L 391.546092 208.46 
L 394.239677 208.46 
L 396.933262 208.46 
L 399.626848 208.46 
L 402.320433 208.46 
L 405.014018 208.46 
L 407.707603 208.46 
L 410.401188 208.46 
L 413.094773 208.46 
" clip-path="url(#p0d89c4c252)" style="fill: none; stroke: #2ca02c; stroke-width: 1.5; stroke-linecap: square"/>
   </g>
   <g id="line2d_16">
    <path d="M 79.090227 208.46 
L 81.783812 208.46 
L 84.477397 208.46 
L 87.170982 208.46 
L 89.864567 208.46 
L 92.558152 208.46 
L 95.251738 208.46 
L 97.945323 208.46 
L 100.638908 208.46 
L 103.332493 208.46 
L 106.026078 208.46 
L 108.719663 208.46 
L 111.413248 208.46 
L 114.106833 208.46 
L 116.800418 208.46 
L 119.494003 208.46 
L 122.187588 208.46 
L 124.881173 208.46 
L 127.574758 208.46 
L 130.268343 208.46 
L 132.961928 208.46 
L 135.655513 208.46 
L 138.349098 208.46 
L 141.042683 208.46 
L 143.736268 208.46 
L 146.429853 208.46 
L 149.123438 208.46 
L 151.817023 208.46 
L 154.510609 208.46 
L 157.204194 208.46 
L 159.897779 208.46 
L 162.591364 208.46 
L 165.284949 208.46 
L 167.978534 208.46 
L 170.672119 208.46 
L 173.365704 208.46 
L 176.059289 208.46 
L 178.752874 208.46 
L 181.446459 208.46 
L 184.140044 208.46 
L 186.833629 208.46 
L 189.527214 208.46 
L 192.220799 208.46 
L 194.914384 208.46 
L 197.607969 208.46 
L 200.301554 208.46 
L 202.995139 208.46 
L 205.688724 208.46 
L 208.382309 208.46 
L 211.075894 208.46 
L 213.769479 208.46 
L 216.463065 208.46 
L 219.15665 208.46 
L 221.850235 208.46 
L 224.54382 208.46 
L 227.237405 208.46 
L 229.93099 208.46 
L 232.624575 208.46 
L 235.31816 208.46 
L 238.011745 208.46 
L 240.70533 208.46 
L 243.398915 208.46 
L 246.0925 208.46 
L 248.786085 208.46 
L 251.47967 208.46 
L 254.173255 208.46 
L 256.86684 208.46 
L 259.560425 208.46 
L 262.25401 208.46 
L 264.947595 208.46 
L 267.64118 208.46 
L 270.334765 208.46 
L 273.02835 208.46 
L 275.721935 208.46 
L 278.415521 208.46 
L 281.109106 208.46 
L 283.802691 208.46 
L 286.496276 208.46 
L 289.189861 208.46 
L 291.883446 208.46 
L 294.577031 208.46 
L 297.270616 208.46 
L 299.964201 208.46 
L 302.657786 208.46 
L 305.351371 208.46 
L 308.044956 208.46 
L 310.738541 208.46 
L 313.432126 208.46 
L 316.125711 208.46 
L 318.819296 208.46 
L 321.512881 208.46 
L 324.206466 208.46 
L 326.900051 208.46 
L 329.593636 208.46 
L 332.287221 208.46 
L 334.980806 208.46 
L 337.674391 208.46 
L 340.367977 208.46 
L 343.061562 208.46 
L 345.755147 208.46 
L 348.448732 208.46 
L 351.142317 208.46 
L 353.835902 208.46 
L 356.529487 208.46 
L 359.223072 208.46 
L 361.916657 208.46 
L 364.610242 208.46 
L 367.303827 208.46 
L 369.997412 208.46 
L 372.690997 208.46 
L 375.384582 208.46 
L 378.078167 208.46 
L 380.771752 208.46 
L 383.465337 208.46 
L 386.158922 208.46 
L 388.852507 208.46 
L 391.546092 208.46 
L 394.239677 208.46 
L 396.933262 208.46 
L 399.626848 208.46 
L 402.320433 208.46 
L 405.014018 208.46 
L 407.707603 208.46 
L 410.401188 208.46 
L 413.094773 208.46 
" clip-path="url(#p0d89c4c252)" style="fill: none; stroke: #d62728; stroke-width: 1.5; stroke-linecap: square"/>
   </g>
   <g id="line2d_17">
    <path d="M 79.090227 208.46 
L 81.783812 208.46 
L 84.477397 208.46 
L 87.170982 208.46 
L 89.864567 208.46 
L 92.558152 208.46 
L 95.251738 208.46 
L 97.945323 208.46 
L 100.638908 208.46 
L 103.332493 208.46 
L 106.026078 208.46 
L 108.719663 208.46 
L 111.413248 208.46 
L 114.106833 208.46 
L 116.800418 208.46 
L 119.494003 208.46 
L 122.187588 208.46 
L 124.881173 208.46 
L 127.574758 208.46 
L 130.268343 208.46 
L 132.961928 208.46 
L 135.655513 208.46 
L 138.349098 208.46 
L 141.042683 208.46 
L 143.736268 208.46 
L 146.429853 208.46 
L 149.123438 208.46 
L 151.817023 208.46 
L 154.510609 208.46 
L 157.204194 208.46 
L 159.897779 208.46 
L 162.591364 208.46 
L 165.284949 208.46 
L 167.978534 208.46 
L 170.672119 208.46 
L 173.365704 208.46 
L 176.059289 208.46 
L 178.752874 208.46 
L 181.446459 208.46 
L 184.140044 208.46 
L 186.833629 208.46 
L 189.527214 208.46 
L 192.220799 208.46 
L 194.914384 208.46 
L 197.607969 208.46 
L 200.301554 208.46 
L 202.995139 208.46 
L 205.688724 208.46 
L 208.382309 208.46 
L 211.075894 208.46 
L 213.769479 208.46 
L 216.463065 208.46 
L 219.15665 208.46 
L 221.850235 208.46 
L 224.54382 208.46 
L 227.237405 208.46 
L 229.93099 208.46 
L 232.624575 208.46 
L 235.31816 208.46 
L 238.011745 208.46 
L 240.70533 208.46 
L 243.398915 208.46 
L 246.0925 208.46 
L 248.786085 208.46 
L 251.47967 208.46 
L 254.173255 208.46 
L 256.86684 208.46 
L 259.560425 208.46 
L 262.25401 208.46 
L 264.947595 208.46 
L 267.64118 208.46 
L 270.334765 208.46 
L 273.02835 208.46 
L 275.721935 208.46 
L 278.415521 208.46 
L 281.109106 208.46 
L 283.802691 208.46 
L 286.496276 208.46 
L 289.189861 208.46 
L 291.883446 208.46 
L 294.577031 208.46 
L 297.270616 208.46 
L 299.964201 208.46 
L 302.657786 208.46 
L 305.351371 208.46 
L 308.044956 208.46 
L 310.738541 208.46 
L 313.432126 208.46 
L 316.125711 208.46 
L 318.819296 208.46 
L 321.512881 208.46 
L 324.206466 208.46 
L 326.900051 208.46 
L 329.593636 208.46 
L 332.287221 208.46 
L 334.980806 208.46 
L 337.674391 208.46 
L 340.367977 208.46 
L 343.061562 208.46 
L 345.755147 208.46 
L 348.448732 208.46 
L 351.142317 208.46 
L 353.835902 208.46 
L 356.529487 208.46 
L 359.223072 208.46 
L 361.916657 208.46 
L 364.610242 208.46 
L 367.303827 208.46 
L 369.997412 208.46 
L 372.690997 208.46 
L 375.384582 208.46 
L 378.078167 208.46 
L 380.771752 208.46 
L 383.465337 208.46 
L 386.158922 208.46 
L 388.852507 208.46 
L 391.546092 208.46 
L 394.239677 208.46 
L 396.933262 208.46 
L 399.626848 208.46 
L 402.320433 208.46 
L 405.014018 208.46 
L 407.707603 208.46 
L 410.401188 208.46 
L 413.094773 208.46 
" clip-path="url(#p0d89c4c252)" style="fill: none; stroke: #9467bd; stroke-width: 1.5; stroke-linecap: square"/>
   </g>
   <g id="patch_3">
    <path d="M 62.39 390.04 
L 62.39 26.88 
" style="fill: none; stroke: #000000; stroke-width: 0.8; stroke-linejoin: miter; stroke-linecap: square"/>
   </g>
   <g id="patch_4">
    <path d="M 429.795 390.04 
L 429.795 26.88 
" style="fill: none; stroke: #000000; stroke-width: 0.8; stroke-linejoin: miter; stroke-linecap: square"/>
   </g>
   <g id="patch_5">
    <path d="M 62.39 390.04 
L 429.795 390.04 
" style="fill: none; stroke: #000000; stroke-width: 0.8; stroke-linejoin: miter; stroke-linecap: square"/>
   </g>
   <g id="patch_6">
    <path d="M 62.39 26.88 
L 429.795 26.88 
" style="fill: none; stroke: #000000; stroke-width: 0.8; stroke-linejoin: miter; stroke-linecap: square"/>
   </g>
   <g id="text_15">
    <!-- Testing urlparse : Evolution with RandomSearch -->
    <g transform="translate(102.584688 20.88) scale(0.12 -0.12)">
     <defs>
      <path id="DejaVuSans-67" d="M 2906 1791 
Q 2906 2416 2648 2759 
Q 2391 3103 1925 3103 
Q 1463 3103 1205 2759 
Q 947 2416 947 1791 
Q 947 1169 1205 825 
Q 1463 481 1925 481 
Q 2391 481 2648 825 
Q 2906 1169 2906 1791 
z
M 3481 434 
Q 3481 -459 3084 -895 
Q 2688 -1331 1869 -1331 
Q 1566 -1331 1297 -1286 
Q 1028 -1241 775 -1147 
L 775 -588 
Q 1028 -725 1275 -790 
Q 1522 -856 1778 -856 
Q 2344 -856 2625 -561 
Q 2906 -266 2906 331 
L 2906 616 
Q 2728 306 2450 153 
Q 2172 0 1784 0 
Q 1141 0 747 490 
Q 353 981 353 1791 
Q 353 2603 747 3093 
Q 1141 3584 1784 3584 
Q 2172 3584 2450 3431 
Q 2728 3278 2906 2969 
L 2906 3500 
L 3481 3500 
L 3481 434 
z
" transform="scale(0.015625)"/>
      <path id="DejaVuSans-6c" d="M 603 4863 
L 1178 4863 
L 1178 0 
L 603 0 
L 603 4863 
z
" transform="scale(0.015625)"/>
      <path id="DejaVuSans-70" d="M 1159 525 
L 1159 -1331 
L 581 -1331 
L 581 3500 
L 1159 3500 
L 1159 2969 
Q 1341 3281 1617 3432 
Q 1894 3584 2278 3584 
Q 2916 3584 3314 3078 
Q 3713 2572 3713 1747 
Q 3713 922 3314 415 
Q 2916 -91 2278 -91 
Q 1894 -91 1617 61 
Q 1341 213 1159 525 
z
M 3116 1747 
Q 3116 2381 2855 2742 
Q 2594 3103 2138 3103 
Q 1681 3103 1420 2742 
Q 1159 2381 1159 1747 
Q 1159 1113 1420 752 
Q 1681 391 2138 391 
Q 2594 391 2855 752 
Q 3116 1113 3116 1747 
z
" transform="scale(0.015625)"/>
      <path id="DejaVuSans-3a" d="M 750 794 
L 1409 794 
L 1409 0 
L 750 0 
L 750 794 
z
M 750 3309 
L 1409 3309 
L 1409 2516 
L 750 2516 
L 750 3309 
z
" transform="scale(0.015625)"/>
      <path id="DejaVuSans-45" d="M 628 4666 
L 3578 4666 
L 3578 4134 
L 1259 4134 
L 1259 2753 
L 3481 2753 
L 3481 2222 
L 1259 2222 
L 1259 531 
L 3634 531 
L 3634 0 
L 628 0 
L 628 4666 
z
" transform="scale(0.015625)"/>
      <path id="DejaVuSans-77" d="M 269 3500 
L 844 3500 
L 1563 769 
L 2278 3500 
L 2956 3500 
L 3675 769 
L 4391 3500 
L 4966 3500 
L 4050 0 
L 3372 0 
L 2619 2869 
L 1863 0 
L 1184 0 
L 269 3500 
z
" transform="scale(0.015625)"/>
      <path id="DejaVuSans-68" d="M 3513 2113 
L 3513 0 
L 2938 0 
L 2938 2094 
Q 2938 2591 2744 2837 
Q 2550 3084 2163 3084 
Q 1697 3084 1428 2787 
Q 1159 2491 1159 1978 
L 1159 0 
L 581 0 
L 581 4863 
L 1159 4863 
L 1159 2956 
Q 1366 3272 1645 3428 
Q 1925 3584 2291 3584 
Q 2894 3584 3203 3211 
Q 3513 2838 3513 2113 
z
" transform="scale(0.015625)"/>
      <path id="DejaVuSans-52" d="M 2841 2188 
Q 3044 2119 3236 1894 
Q 3428 1669 3622 1275 
L 4263 0 
L 3584 0 
L 2988 1197 
Q 2756 1666 2539 1819 
Q 2322 1972 1947 1972 
L 1259 1972 
L 1259 0 
L 628 0 
L 628 4666 
L 2053 4666 
Q 2853 4666 3247 4331 
Q 3641 3997 3641 3322 
Q 3641 2881 3436 2590 
Q 3231 2300 2841 2188 
z
M 1259 4147 
L 1259 2491 
L 2053 2491 
Q 2509 2491 2742 2702 
Q 2975 2913 2975 3322 
Q 2975 3731 2742 3939 
Q 2509 4147 2053 4147 
L 1259 4147 
z
" transform="scale(0.015625)"/>
      <path id="DejaVuSans-53" d="M 3425 4513 
L 3425 3897 
Q 3066 4069 2747 4153 
Q 2428 4238 2131 4238 
Q 1616 4238 1336 4038 
Q 1056 3838 1056 3469 
Q 1056 3159 1242 3001 
Q 1428 2844 1947 2747 
L 2328 2669 
Q 3034 2534 3370 2195 
Q 3706 1856 3706 1288 
Q 3706 609 3251 259 
Q 2797 -91 1919 -91 
Q 1588 -91 1214 -16 
Q 841 59 441 206 
L 441 856 
Q 825 641 1194 531 
Q 1563 422 1919 422 
Q 2459 422 2753 634 
Q 3047 847 3047 1241 
Q 3047 1584 2836 1778 
Q 2625 1972 2144 2069 
L 1759 2144 
Q 1053 2284 737 2584 
Q 422 2884 422 3419 
Q 422 4038 858 4394 
Q 1294 4750 2059 4750 
Q 2388 4750 2728 4690 
Q 3069 4631 3425 4513 
z
" transform="scale(0.015625)"/>
      <path id="DejaVuSans-63" d="M 3122 3366 
L 3122 2828 
Q 2878 2963 2633 3030 
Q 2388 3097 2138 3097 
Q 1578 3097 1268 2742 
Q 959 2388 959 1747 
Q 959 1106 1268 751 
Q 1578 397 2138 397 
Q 2388 397 2633 464 
Q 2878 531 3122 666 
L 3122 134 
Q 2881 22 2623 -34 
Q 2366 -91 2075 -91 
Q 1284 -91 818 406 
Q 353 903 353 1747 
Q 353 2603 823 3093 
Q 1294 3584 2113 3584 
Q 2378 3584 2631 3529 
Q 2884 3475 3122 3366 
z
" transform="scale(0.015625)"/>
     </defs>
     <use xlink:href="#DejaVuSans-54"/>
     <use xlink:href="#DejaVuSans-65" transform="translate(44.083984 0)"/>
     <use xlink:href="#DejaVuSans-73" transform="translate(105.607422 0)"/>
     <use xlink:href="#DejaVuSans-74" transform="translate(157.707031 0)"/>
     <use xlink:href="#DejaVuSans-69" transform="translate(196.916016 0)"/>
     <use xlink:href="#DejaVuSans-6e" transform="translate(224.699219 0)"/>
     <use xlink:href="#DejaVuSans-67" transform="translate(288.078125 0)"/>
     <use xlink:href="#DejaVuSans-20" transform="translate(351.554688 0)"/>
     <use xlink:href="#DejaVuSans-75" transform="translate(383.341797 0)"/>
     <use xlink:href="#DejaVuSans-72" transform="translate(446.720703 0)"/>
     <use xlink:href="#DejaVuSans-6c" transform="translate(487.833984 0)"/>
     <use xlink:href="#DejaVuSans-70" transform="translate(515.617188 0)"/>
     <use xlink:href="#DejaVuSans-61" transform="translate(579.09375 0)"/>
     <use xlink:href="#DejaVuSans-72" transform="translate(640.373047 0)"/>
     <use xlink:href="#DejaVuSans-73" transform="translate(681.486328 0)"/>
     <use xlink:href="#DejaVuSans-65" transform="translate(733.585938 0)"/>
     <use xlink:href="#DejaVuSans-20" transform="translate(795.109375 0)"/>
     <use xlink:href="#DejaVuSans-3a" transform="translate(826.896484 0)"/>
     <use xlink:href="#DejaVuSans-20" transform="translate(860.587891 0)"/>
     <use xlink:href="#DejaVuSans-45" transform="translate(892.375 0)"/>
     <use xlink:href="#DejaVuSans-76" transform="translate(955.558594 0)"/>
     <use xlink:href="#DejaVuSans-6f" transform="translate(1014.738281 0)"/>
     <use xlink:href="#DejaVuSans-6c" transform="translate(1075.919922 0)"/>
     <use xlink:href="#DejaVuSans-75" transform="translate(1103.703125 0)"/>
     <use xlink:href="#DejaVuSans-74" transform="translate(1167.082031 0)"/>
     <use xlink:href="#DejaVuSans-69" transform="translate(1206.291016 0)"/>
     <use xlink:href="#DejaVuSans-6f" transform="translate(1234.074219 0)"/>
     <use xlink:href="#DejaVuSans-6e" transform="translate(1295.255859 0)"/>
     <use xlink:href="#DejaVuSans-20" transform="translate(1358.634766 0)"/>
     <use xlink:href="#DejaVuSans-77" transform="translate(1390.421875 0)"/>
     <use xlink:href="#DejaVuSans-69" transform="translate(1472.208984 0)"/>
     <use xlink:href="#DejaVuSans-74" transform="translate(1499.992188 0)"/>
     <use xlink:href="#DejaVuSans-68" transform="translate(1539.201172 0)"/>
     <use xlink:href="#DejaVuSans-20" transform="translate(1602.580078 0)"/>
     <use xlink:href="#DejaVuSans-52" transform="translate(1634.367188 0)"/>
     <use xlink:href="#DejaVuSans-61" transform="translate(1701.599609 0)"/>
     <use xlink:href="#DejaVuSans-6e" transform="translate(1762.878906 0)"/>
     <use xlink:href="#DejaVuSans-64" transform="translate(1826.257812 0)"/>
     <use xlink:href="#DejaVuSans-6f" transform="translate(1889.734375 0)"/>
     <use xlink:href="#DejaVuSans-6d" transform="translate(1950.916016 0)"/>
     <use xlink:href="#DejaVuSans-53" transform="translate(2048.328125 0)"/>
     <use xlink:href="#DejaVuSans-65" transform="translate(2111.804688 0)"/>
     <use xlink:href="#DejaVuSans-61" transform="translate(2173.328125 0)"/>
     <use xlink:href="#DejaVuSans-72" transform="translate(2234.607422 0)"/>
     <use xlink:href="#DejaVuSans-63" transform="translate(2273.470703 0)"/>
     <use xlink:href="#DejaVuSans-68" transform="translate(2328.451172 0)"/>
    </g>
   </g>
   <g id="legend_1">
    <g id="patch_7">
     <path d="M 356.08875 108.270625 
L 422.795 108.270625 
Q 424.795 108.270625 424.795 106.270625 
L 424.795 33.88 
Q 424.795 31.88 422.795 31.88 
L 356.08875 31.88 
Q 354.08875 31.88 354.08875 33.88 
L 354.08875 106.270625 
Q 354.08875 108.270625 356.08875 108.270625 
z
" style="fill: #ffffff; opacity: 0.8; stroke: #cccccc; stroke-linejoin: miter"/>
    </g>
    <g id="line2d_18">
     <path d="M 358.08875 39.978437 
L 368.08875 39.978437 
L 378.08875 39.978437 
" style="fill: none; stroke: #1f77b4; stroke-width: 1.5; stroke-linecap: square"/>
    </g>
    <g id="text_16">
     <!-- run #1 -->
     <g transform="translate(386.08875 43.478437) scale(0.1 -0.1)">
      <defs>
       <path id="DejaVuSans-23" d="M 3272 2816 
L 2363 2816 
L 2100 1772 
L 3016 1772 
L 3272 2816 
z
M 2803 4594 
L 2478 3297 
L 3391 3297 
L 3719 4594 
L 4219 4594 
L 3897 3297 
L 4872 3297 
L 4872 2816 
L 3775 2816 
L 3519 1772 
L 4513 1772 
L 4513 1294 
L 3397 1294 
L 3072 0 
L 2572 0 
L 2894 1294 
L 1978 1294 
L 1656 0 
L 1153 0 
L 1478 1294 
L 494 1294 
L 494 1772 
L 1594 1772 
L 1856 2816 
L 850 2816 
L 850 3297 
L 1978 3297 
L 2297 4594 
L 2803 4594 
z
" transform="scale(0.015625)"/>
      </defs>
      <use xlink:href="#DejaVuSans-72"/>
      <use xlink:href="#DejaVuSans-75" transform="translate(41.113281 0)"/>
      <use xlink:href="#DejaVuSans-6e" transform="translate(104.492188 0)"/>
      <use xlink:href="#DejaVuSans-20" transform="translate(167.871094 0)"/>
      <use xlink:href="#DejaVuSans-23" transform="translate(199.658203 0)"/>
      <use xlink:href="#DejaVuSans-31" transform="translate(283.447266 0)"/>
     </g>
    </g>
    <g id="line2d_19">
     <path d="M 358.08875 54.656563 
L 368.08875 54.656563 
L 378.08875 54.656563 
" style="fill: none; stroke: #ff7f0e; stroke-width: 1.5; stroke-linecap: square"/>
    </g>
    <g id="text_17">
     <!-- run #2 -->
     <g transform="translate(386.08875 58.156563) scale(0.1 -0.1)">
      <use xlink:href="#DejaVuSans-72"/>
      <use xlink:href="#DejaVuSans-75" transform="translate(41.113281 0)"/>
      <use xlink:href="#DejaVuSans-6e" transform="translate(104.492188 0)"/>
      <use xlink:href="#DejaVuSans-20" transform="translate(167.871094 0)"/>
      <use xlink:href="#DejaVuSans-23" transform="translate(199.658203 0)"/>
      <use xlink:href="#DejaVuSans-32" transform="translate(283.447266 0)"/>
     </g>
    </g>
    <g id="line2d_20">
     <path d="M 358.08875 69.334687 
L 368.08875 69.334687 
L 378.08875 69.334687 
" style="fill: none; stroke: #2ca02c; stroke-width: 1.5; stroke-linecap: square"/>
    </g>
    <g id="text_18">
     <!-- run #3 -->
     <g transform="translate(386.08875 72.834687) scale(0.1 -0.1)">
      <use xlink:href="#DejaVuSans-72"/>
      <use xlink:href="#DejaVuSans-75" transform="translate(41.113281 0)"/>
      <use xlink:href="#DejaVuSans-6e" transform="translate(104.492188 0)"/>
      <use xlink:href="#DejaVuSans-20" transform="translate(167.871094 0)"/>
      <use xlink:href="#DejaVuSans-23" transform="translate(199.658203 0)"/>
      <use xlink:href="#DejaVuSans-33" transform="translate(283.447266 0)"/>
     </g>
    </g>
    <g id="line2d_21">
     <path d="M 358.08875 84.012812 
L 368.08875 84.012812 
L 378.08875 84.012812 
" style="fill: none; stroke: #d62728; stroke-width: 1.5; stroke-linecap: square"/>
    </g>
    <g id="text_19">
     <!-- run #4 -->
     <g transform="translate(386.08875 87.512812) scale(0.1 -0.1)">
      <use xlink:href="#DejaVuSans-72"/>
      <use xlink:href="#DejaVuSans-75" transform="translate(41.113281 0)"/>
      <use xlink:href="#DejaVuSans-6e" transform="translate(104.492188 0)"/>
      <use xlink:href="#DejaVuSans-20" transform="translate(167.871094 0)"/>
      <use xlink:href="#DejaVuSans-23" transform="translate(199.658203 0)"/>
      <use xlink:href="#DejaVuSans-34" transform="translate(283.447266 0)"/>
     </g>
    </g>
    <g id="line2d_22">
     <path d="M 358.08875 98.690938 
L 368.08875 98.690938 
L 378.08875 98.690938 
" style="fill: none; stroke: #9467bd; stroke-width: 1.5; stroke-linecap: square"/>
    </g>
    <g id="text_20">
     <!-- run #5 -->
     <g transform="translate(386.08875 102.190938) scale(0.1 -0.1)">
      <use xlink:href="#DejaVuSans-72"/>
      <use xlink:href="#DejaVuSans-75" transform="translate(41.113281 0)"/>
      <use xlink:href="#DejaVuSans-6e" transform="translate(104.492188 0)"/>
      <use xlink:href="#DejaVuSans-20" transform="translate(167.871094 0)"/>
      <use xlink:href="#DejaVuSans-23" transform="translate(199.658203 0)"/>
      <use xlink:href="#DejaVuSans-35" transform="translate(283.447266 0)"/>
     </g>
    </g>
   </g>
  </g>
  <g id="axes_2">
   <g id="patch_8">
    <path d="M 485.795 390.04 
L 853.2 390.04 
L 853.2 26.88 
L 485.795 26.88 
z
" style="fill: #ffffff"/>
   </g>
   <g id="matplotlib.axis_3">
    <g id="xtick_8">
     <g id="line2d_23">
      <g>
       <use xlink:href="#m5f7a18bc5b" x="502.495227" y="390.04" style="stroke: #000000; stroke-width: 0.8"/>
      </g>
     </g>
     <g id="text_21">
      <!-- 0 -->
      <g transform="translate(499.313977 404.638438) scale(0.1 -0.1)">
       <use xlink:href="#DejaVuSans-30"/>
      </g>
     </g>
    </g>
    <g id="xtick_9">
     <g id="line2d_24">
      <g>
       <use xlink:href="#m5f7a18bc5b" x="569.834853" y="390.04" style="stroke: #000000; stroke-width: 0.8"/>
      </g>
     </g>
     <g id="text_22">
      <!-- 50 -->
      <g transform="translate(563.472353 404.638438) scale(0.1 -0.1)">
       <use xlink:href="#DejaVuSans-35"/>
       <use xlink:href="#DejaVuSans-30" transform="translate(63.623047 0)"/>
      </g>
     </g>
    </g>
    <g id="xtick_10">
     <g id="line2d_25">
      <g>
       <use xlink:href="#m5f7a18bc5b" x="637.174479" y="390.04" style="stroke: #000000; stroke-width: 0.8"/>
      </g>
     </g>
     <g id="text_23">
      <!-- 100 -->
      <g transform="translate(627.630729 404.638438) scale(0.1 -0.1)">
       <use xlink:href="#DejaVuSans-31"/>
       <use xlink:href="#DejaVuSans-30" transform="translate(63.623047 0)"/>
       <use xlink:href="#DejaVuSans-30" transform="translate(127.246094 0)"/>
      </g>
     </g>
    </g>
    <g id="xtick_11">
     <g id="line2d_26">
      <g>
       <use xlink:href="#m5f7a18bc5b" x="704.514106" y="390.04" style="stroke: #000000; stroke-width: 0.8"/>
      </g>
     </g>
     <g id="text_24">
      <!-- 150 -->
      <g transform="translate(694.970356 404.638438) scale(0.1 -0.1)">
       <use xlink:href="#DejaVuSans-31"/>
       <use xlink:href="#DejaVuSans-35" transform="translate(63.623047 0)"/>
       <use xlink:href="#DejaVuSans-30" transform="translate(127.246094 0)"/>
      </g>
     </g>
    </g>
    <g id="xtick_12">
     <g id="line2d_27">
      <g>
       <use xlink:href="#m5f7a18bc5b" x="771.853732" y="390.04" style="stroke: #000000; stroke-width: 0.8"/>
      </g>
     </g>
     <g id="text_25">
      <!-- 200 -->
      <g transform="translate(762.309982 404.638438) scale(0.1 -0.1)">
       <use xlink:href="#DejaVuSans-32"/>
       <use xlink:href="#DejaVuSans-30" transform="translate(63.623047 0)"/>
       <use xlink:href="#DejaVuSans-30" transform="translate(127.246094 0)"/>
      </g>
     </g>
    </g>
    <g id="xtick_13">
     <g id="line2d_28">
      <g>
       <use xlink:href="#m5f7a18bc5b" x="839.193358" y="390.04" style="stroke: #000000; stroke-width: 0.8"/>
      </g>
     </g>
     <g id="text_26">
      <!-- 250 -->
      <g transform="translate(829.649608 404.638438) scale(0.1 -0.1)">
       <use xlink:href="#DejaVuSans-32"/>
       <use xlink:href="#DejaVuSans-35" transform="translate(63.623047 0)"/>
       <use xlink:href="#DejaVuSans-30" transform="translate(127.246094 0)"/>
      </g>
     </g>
    </g>
    <g id="text_27">
     <!-- Generations -->
     <g transform="translate(638.999844 418.316562) scale(0.1 -0.1)">
      <use xlink:href="#DejaVuSans-47"/>
      <use xlink:href="#DejaVuSans-65" transform="translate(77.490234 0)"/>
      <use xlink:href="#DejaVuSans-6e" transform="translate(139.013672 0)"/>
      <use xlink:href="#DejaVuSans-65" transform="translate(202.392578 0)"/>
      <use xlink:href="#DejaVuSans-72" transform="translate(263.916016 0)"/>
      <use xlink:href="#DejaVuSans-61" transform="translate(305.029297 0)"/>
      <use xlink:href="#DejaVuSans-74" transform="translate(366.308594 0)"/>
      <use xlink:href="#DejaVuSans-69" transform="translate(405.517578 0)"/>
      <use xlink:href="#DejaVuSans-6f" transform="translate(433.300781 0)"/>
      <use xlink:href="#DejaVuSans-6e" transform="translate(494.482422 0)"/>
      <use xlink:href="#DejaVuSans-73" transform="translate(557.861328 0)"/>
     </g>
    </g>
   </g>
   <g id="matplotlib.axis_4">
    <g id="ytick_6">
     <g id="line2d_29">
      <g>
       <use xlink:href="#md6928af417" x="485.795" y="373.532727" style="stroke: #000000; stroke-width: 0.8"/>
      </g>
     </g>
     <g id="text_28">
      <!-- −4.5 -->
      <g transform="translate(454.512187 377.331946) scale(0.1 -0.1)">
       <use xlink:href="#DejaVuSans-2212"/>
       <use xlink:href="#DejaVuSans-34" transform="translate(83.789062 0)"/>
       <use xlink:href="#DejaVuSans-2e" transform="translate(147.412109 0)"/>
       <use xlink:href="#DejaVuSans-35" transform="translate(179.199219 0)"/>
      </g>
     </g>
    </g>
    <g id="ytick_7">
     <g id="line2d_30">
      <g>
       <use xlink:href="#md6928af417" x="485.795" y="306.280875" style="stroke: #000000; stroke-width: 0.8"/>
      </g>
     </g>
     <g id="text_29">
      <!-- −4.0 -->
      <g transform="translate(454.512187 310.080094) scale(0.1 -0.1)">
       <use xlink:href="#DejaVuSans-2212"/>
       <use xlink:href="#DejaVuSans-34" transform="translate(83.789062 0)"/>
       <use xlink:href="#DejaVuSans-2e" transform="translate(147.412109 0)"/>
       <use xlink:href="#DejaVuSans-30" transform="translate(179.199219 0)"/>
      </g>
     </g>
    </g>
    <g id="ytick_8">
     <g id="line2d_31">
      <g>
       <use xlink:href="#md6928af417" x="485.795" y="239.029024" style="stroke: #000000; stroke-width: 0.8"/>
      </g>
     </g>
     <g id="text_30">
      <!-- −3.5 -->
      <g transform="translate(454.512187 242.828242) scale(0.1 -0.1)">
       <use xlink:href="#DejaVuSans-2212"/>
       <use xlink:href="#DejaVuSans-33" transform="translate(83.789062 0)"/>
       <use xlink:href="#DejaVuSans-2e" transform="translate(147.412109 0)"/>
       <use xlink:href="#DejaVuSans-35" transform="translate(179.199219 0)"/>
      </g>
     </g>
    </g>
    <g id="ytick_9">
     <g id="line2d_32">
      <g>
       <use xlink:href="#md6928af417" x="485.795" y="171.777172" style="stroke: #000000; stroke-width: 0.8"/>
      </g>
     </g>
     <g id="text_31">
      <!-- −3.0 -->
      <g transform="translate(454.512187 175.57639) scale(0.1 -0.1)">
       <use xlink:href="#DejaVuSans-2212"/>
       <use xlink:href="#DejaVuSans-33" transform="translate(83.789062 0)"/>
       <use xlink:href="#DejaVuSans-2e" transform="translate(147.412109 0)"/>
       <use xlink:href="#DejaVuSans-30" transform="translate(179.199219 0)"/>
      </g>
     </g>
    </g>
    <g id="ytick_10">
     <g id="line2d_33">
      <g>
       <use xlink:href="#md6928af417" x="485.795" y="104.52532" style="stroke: #000000; stroke-width: 0.8"/>
      </g>
     </g>
     <g id="text_32">
      <!-- −2.5 -->
      <g transform="translate(454.512187 108.324539) scale(0.1 -0.1)">
       <use xlink:href="#DejaVuSans-2212"/>
       <use xlink:href="#DejaVuSans-32" transform="translate(83.789062 0)"/>
       <use xlink:href="#DejaVuSans-2e" transform="translate(147.412109 0)"/>
       <use xlink:href="#DejaVuSans-35" transform="translate(179.199219 0)"/>
      </g>
     </g>
    </g>
    <g id="ytick_11">
     <g id="line2d_34">
      <g>
       <use xlink:href="#md6928af417" x="485.795" y="37.273468" style="stroke: #000000; stroke-width: 0.8"/>
      </g>
     </g>
     <g id="text_33">
      <!-- −2.0 -->
      <g transform="translate(454.512187 41.072687) scale(0.1 -0.1)">
       <use xlink:href="#DejaVuSans-2212"/>
       <use xlink:href="#DejaVuSans-32" transform="translate(83.789062 0)"/>
       <use xlink:href="#DejaVuSans-2e" transform="translate(147.412109 0)"/>
       <use xlink:href="#DejaVuSans-30" transform="translate(179.199219 0)"/>
      </g>
     </g>
    </g>
    <g id="text_34">
     <!-- Number of Lines Covered / Number of Tests -->
     <g transform="translate(448.4325 317.334219) rotate(-90) scale(0.1 -0.1)">
      <use xlink:href="#DejaVuSans-4e"/>
      <use xlink:href="#DejaVuSans-75" transform="translate(74.804688 0)"/>
      <use xlink:href="#DejaVuSans-6d" transform="translate(138.183594 0)"/>
      <use xlink:href="#DejaVuSans-62" transform="translate(235.595703 0)"/>
      <use xlink:href="#DejaVuSans-65" transform="translate(299.072266 0)"/>
      <use xlink:href="#DejaVuSans-72" transform="translate(360.595703 0)"/>
      <use xlink:href="#DejaVuSans-20" transform="translate(401.708984 0)"/>
      <use xlink:href="#DejaVuSans-6f" transform="translate(433.496094 0)"/>
      <use xlink:href="#DejaVuSans-66" transform="translate(494.677734 0)"/>
      <use xlink:href="#DejaVuSans-20" transform="translate(529.882812 0)"/>
      <use xlink:href="#DejaVuSans-4c" transform="translate(561.669922 0)"/>
      <use xlink:href="#DejaVuSans-69" transform="translate(617.382812 0)"/>
      <use xlink:href="#DejaVuSans-6e" transform="translate(645.166016 0)"/>
      <use xlink:href="#DejaVuSans-65" transform="translate(708.544922 0)"/>
      <use xlink:href="#DejaVuSans-73" transform="translate(770.068359 0)"/>
      <use xlink:href="#DejaVuSans-20" transform="translate(822.167969 0)"/>
      <use xlink:href="#DejaVuSans-43" transform="translate(853.955078 0)"/>
      <use xlink:href="#DejaVuSans-6f" transform="translate(923.779297 0)"/>
      <use xlink:href="#DejaVuSans-76" transform="translate(984.960938 0)"/>
      <use xlink:href="#DejaVuSans-65" transform="translate(1044.140625 0)"/>
      <use xlink:href="#DejaVuSans-72" transform="translate(1105.664062 0)"/>
      <use xlink:href="#DejaVuSans-65" transform="translate(1144.527344 0)"/>
      <use xlink:href="#DejaVuSans-64" transform="translate(1206.050781 0)"/>
      <use xlink:href="#DejaVuSans-20" transform="translate(1269.527344 0)"/>
      <use xlink:href="#DejaVuSans-2f" transform="translate(1301.314453 0)"/>
      <use xlink:href="#DejaVuSans-20" transform="translate(1335.005859 0)"/>
      <use xlink:href="#DejaVuSans-4e" transform="translate(1366.792969 0)"/>
      <use xlink:href="#DejaVuSans-75" transform="translate(1441.597656 0)"/>
      <use xlink:href="#DejaVuSans-6d" transform="translate(1504.976562 0)"/>
      <use xlink:href="#DejaVuSans-62" transform="translate(1602.388672 0)"/>
      <use xlink:href="#DejaVuSans-65" transform="translate(1665.865234 0)"/>
      <use xlink:href="#DejaVuSans-72" transform="translate(1727.388672 0)"/>
      <use xlink:href="#DejaVuSans-20" transform="translate(1768.501953 0)"/>
      <use xlink:href="#DejaVuSans-6f" transform="translate(1800.289062 0)"/>
      <use xlink:href="#DejaVuSans-66" transform="translate(1861.470703 0)"/>
      <use xlink:href="#DejaVuSans-20" transform="translate(1896.675781 0)"/>
      <use xlink:href="#DejaVuSans-54" transform="translate(1928.462891 0)"/>
      <use xlink:href="#DejaVuSans-65" transform="translate(1972.546875 0)"/>
      <use xlink:href="#DejaVuSans-73" transform="translate(2034.070312 0)"/>
      <use xlink:href="#DejaVuSans-74" transform="translate(2086.169922 0)"/>
      <use xlink:href="#DejaVuSans-73" transform="translate(2125.378906 0)"/>
     </g>
    </g>
   </g>
   <g id="line2d_35">
    <path d="M 502.495227 70.899394 
L 506.535605 70.899394 
L 507.882397 86.827464 
L 511.922775 86.827464 
L 513.269567 104.52532 
L 514.61636 104.52532 
L 515.963152 124.305276 
L 577.915609 124.305276 
L 579.262401 146.557727 
L 610.238629 146.557727 
L 611.585422 171.777172 
L 664.11033 171.777172 
L 665.457122 200.599394 
L 746.264674 200.599394 
L 747.611466 233.855804 
L 836.499773 233.855804 
L 836.499773 233.855804 
" clip-path="url(#p3d7e7d02e3)" style="fill: none; stroke: #1f77b4; stroke-width: 1.5; stroke-linecap: square"/>
   </g>
   <g id="line2d_36">
    <path d="M 502.495227 70.899394 
L 505.188812 70.899394 
L 506.535605 86.827464 
L 510.575982 86.827464 
L 511.922775 104.52532 
L 515.963152 104.52532 
L 517.309945 124.305276 
L 524.043908 124.305276 
L 525.3907 146.557727 
L 530.77787 146.557727 
L 532.124663 171.777172 
L 567.141268 171.777172 
L 568.488061 200.599394 
L 615.625799 200.599394 
L 616.972592 233.855804 
L 630.440517 233.855804 
L 631.787309 272.654949 
L 651.989197 272.654949 
L 653.33599 318.508485 
L 785.321657 318.508485 
L 786.668449 373.532727 
L 836.499773 373.532727 
L 836.499773 373.532727 
" clip-path="url(#p3d7e7d02e3)" style="fill: none; stroke: #ff7f0e; stroke-width: 1.5; stroke-linecap: square"/>
   </g>
   <g id="line2d_37">
    <path d="M 502.495227 70.899394 
L 503.84202 70.899394 
L 505.188812 86.827464 
L 506.535605 86.827464 
L 507.882397 104.52532 
L 517.309945 104.52532 
L 518.656738 124.305276 
L 590.036741 124.305276 
L 591.383534 146.557727 
L 621.012969 146.557727 
L 622.359762 171.777172 
L 638.521272 171.777172 
L 639.868065 200.599394 
L 653.33599 200.599394 
L 654.682782 233.855804 
L 701.820521 233.855804 
L 703.167313 272.654949 
L 770.506939 272.654949 
L 771.853732 318.508485 
L 836.499773 318.508485 
L 836.499773 318.508485 
" clip-path="url(#p3d7e7d02e3)" style="fill: none; stroke: #2ca02c; stroke-width: 1.5; stroke-linecap: square"/>
   </g>
   <g id="line2d_38">
    <path d="M 502.495227 70.899394 
L 503.84202 86.827464 
L 507.882397 86.827464 
L 509.22919 104.52532 
L 513.269567 104.52532 
L 514.61636 124.305276 
L 525.3907 124.305276 
L 526.737493 146.557727 
L 563.100891 146.557727 
L 564.447683 171.777172 
L 639.868065 171.777172 
L 641.214857 200.599394 
L 660.069952 200.599394 
L 661.416745 233.855804 
L 765.119769 233.855804 
L 766.466562 272.654949 
L 771.853732 272.654949 
L 773.200524 318.508485 
L 801.483167 318.508485 
L 802.82996 373.532727 
L 836.499773 373.532727 
L 836.499773 373.532727 
" clip-path="url(#p3d7e7d02e3)" style="fill: none; stroke: #d62728; stroke-width: 1.5; stroke-linecap: square"/>
   </g>
   <g id="line2d_39">
    <path d="M 502.495227 43.387273 
L 503.84202 43.387273 
L 505.188812 56.488283 
L 507.882397 56.488283 
L 509.22919 70.899394 
L 517.309945 70.899394 
L 518.656738 86.827464 
L 525.3907 86.827464 
L 526.737493 104.52532 
L 536.16504 104.52532 
L 537.511833 124.305276 
L 568.488061 124.305276 
L 569.834853 146.557727 
L 595.423911 146.557727 
L 596.770704 171.777172 
L 612.932214 171.777172 
L 614.279007 200.599394 
L 658.72316 200.599394 
L 660.069952 233.855804 
L 730.103163 233.855804 
L 731.449956 272.654949 
L 836.499773 272.654949 
L 836.499773 272.654949 
" clip-path="url(#p3d7e7d02e3)" style="fill: none; stroke: #9467bd; stroke-width: 1.5; stroke-linecap: square"/>
   </g>
   <g id="patch_9">
    <path d="M 485.795 390.04 
L 485.795 26.88 
" style="fill: none; stroke: #000000; stroke-width: 0.8; stroke-linejoin: miter; stroke-linecap: square"/>
   </g>
   <g id="patch_10">
    <path d="M 853.2 390.04 
L 853.2 26.88 
" style="fill: none; stroke: #000000; stroke-width: 0.8; stroke-linejoin: miter; stroke-linecap: square"/>
   </g>
   <g id="patch_11">
    <path d="M 485.795 390.04 
L 853.2 390.04 
" style="fill: none; stroke: #000000; stroke-width: 0.8; stroke-linejoin: miter; stroke-linecap: square"/>
   </g>
   <g id="patch_12">
    <path d="M 485.795 26.88 
L 853.2 26.88 
" style="fill: none; stroke: #000000; stroke-width: 0.8; stroke-linejoin: miter; stroke-linecap: square"/>
   </g>
   <g id="text_35">
    <!-- Testing urlparse : Evolution with GA and Tournament Selection -->
    <g transform="translate(482.374375 20.88) scale(0.12 -0.12)">
     <defs>
      <path id="DejaVuSans-41" d="M 2188 4044 
L 1331 1722 
L 3047 1722 
L 2188 4044 
z
M 1831 4666 
L 2547 4666 
L 4325 0 
L 3669 0 
L 3244 1197 
L 1141 1197 
L 716 0 
L 50 0 
L 1831 4666 
z
" transform="scale(0.015625)"/>
     </defs>
     <use xlink:href="#DejaVuSans-54"/>
     <use xlink:href="#DejaVuSans-65" transform="translate(44.083984 0)"/>
     <use xlink:href="#DejaVuSans-73" transform="translate(105.607422 0)"/>
     <use xlink:href="#DejaVuSans-74" transform="translate(157.707031 0)"/>
     <use xlink:href="#DejaVuSans-69" transform="translate(196.916016 0)"/>
     <use xlink:href="#DejaVuSans-6e" transform="translate(224.699219 0)"/>
     <use xlink:href="#DejaVuSans-67" transform="translate(288.078125 0)"/>
     <use xlink:href="#DejaVuSans-20" transform="translate(351.554688 0)"/>
     <use xlink:href="#DejaVuSans-75" transform="translate(383.341797 0)"/>
     <use xlink:href="#DejaVuSans-72" transform="translate(446.720703 0)"/>
     <use xlink:href="#DejaVuSans-6c" transform="translate(487.833984 0)"/>
     <use xlink:href="#DejaVuSans-70" transform="translate(515.617188 0)"/>
     <use xlink:href="#DejaVuSans-61" transform="translate(579.09375 0)"/>
     <use xlink:href="#DejaVuSans-72" transform="translate(640.373047 0)"/>
     <use xlink:href="#DejaVuSans-73" transform="translate(681.486328 0)"/>
     <use xlink:href="#DejaVuSans-65" transform="translate(733.585938 0)"/>
     <use xlink:href="#DejaVuSans-20" transform="translate(795.109375 0)"/>
     <use xlink:href="#DejaVuSans-3a" transform="translate(826.896484 0)"/>
     <use xlink:href="#DejaVuSans-20" transform="translate(860.587891 0)"/>
     <use xlink:href="#DejaVuSans-45" transform="translate(892.375 0)"/>
     <use xlink:href="#DejaVuSans-76" transform="translate(955.558594 0)"/>
     <use xlink:href="#DejaVuSans-6f" transform="translate(1014.738281 0)"/>
     <use xlink:href="#DejaVuSans-6c" transform="translate(1075.919922 0)"/>
     <use xlink:href="#DejaVuSans-75" transform="translate(1103.703125 0)"/>
     <use xlink:href="#DejaVuSans-74" transform="translate(1167.082031 0)"/>
     <use xlink:href="#DejaVuSans-69" transform="translate(1206.291016 0)"/>
     <use xlink:href="#DejaVuSans-6f" transform="translate(1234.074219 0)"/>
     <use xlink:href="#DejaVuSans-6e" transform="translate(1295.255859 0)"/>
     <use xlink:href="#DejaVuSans-20" transform="translate(1358.634766 0)"/>
     <use xlink:href="#DejaVuSans-77" transform="translate(1390.421875 0)"/>
     <use xlink:href="#DejaVuSans-69" transform="translate(1472.208984 0)"/>
     <use xlink:href="#DejaVuSans-74" transform="translate(1499.992188 0)"/>
     <use xlink:href="#DejaVuSans-68" transform="translate(1539.201172 0)"/>
     <use xlink:href="#DejaVuSans-20" transform="translate(1602.580078 0)"/>
     <use xlink:href="#DejaVuSans-47" transform="translate(1634.367188 0)"/>
     <use xlink:href="#DejaVuSans-41" transform="translate(1711.857422 0)"/>
     <use xlink:href="#DejaVuSans-20" transform="translate(1780.265625 0)"/>
     <use xlink:href="#DejaVuSans-61" transform="translate(1812.052734 0)"/>
     <use xlink:href="#DejaVuSans-6e" transform="translate(1873.332031 0)"/>
     <use xlink:href="#DejaVuSans-64" transform="translate(1936.710938 0)"/>
     <use xlink:href="#DejaVuSans-20" transform="translate(2000.1875 0)"/>
     <use xlink:href="#DejaVuSans-54" transform="translate(2031.974609 0)"/>
     <use xlink:href="#DejaVuSans-6f" transform="translate(2076.058594 0)"/>
     <use xlink:href="#DejaVuSans-75" transform="translate(2137.240234 0)"/>
     <use xlink:href="#DejaVuSans-72" transform="translate(2200.619141 0)"/>
     <use xlink:href="#DejaVuSans-6e" transform="translate(2239.982422 0)"/>
     <use xlink:href="#DejaVuSans-61" transform="translate(2303.361328 0)"/>
     <use xlink:href="#DejaVuSans-6d" transform="translate(2364.640625 0)"/>
     <use xlink:href="#DejaVuSans-65" transform="translate(2462.052734 0)"/>
     <use xlink:href="#DejaVuSans-6e" transform="translate(2523.576172 0)"/>
     <use xlink:href="#DejaVuSans-74" transform="translate(2586.955078 0)"/>
     <use xlink:href="#DejaVuSans-20" transform="translate(2626.164062 0)"/>
     <use xlink:href="#DejaVuSans-53" transform="translate(2657.951172 0)"/>
     <use xlink:href="#DejaVuSans-65" transform="translate(2721.427734 0)"/>
     <use xlink:href="#DejaVuSans-6c" transform="translate(2782.951172 0)"/>
     <use xlink:href="#DejaVuSans-65" transform="translate(2810.734375 0)"/>
     <use xlink:href="#DejaVuSans-63" transform="translate(2872.257812 0)"/>
     <use xlink:href="#DejaVuSans-74" transform="translate(2927.238281 0)"/>
     <use xlink:href="#DejaVuSans-69" transform="translate(2966.447266 0)"/>
     <use xlink:href="#DejaVuSans-6f" transform="translate(2994.230469 0)"/>
     <use xlink:href="#DejaVuSans-6e" transform="translate(3055.412109 0)"/>
    </g>
   </g>
   <g id="legend_2">
    <g id="patch_13">
     <path d="M 779.49375 108.270625 
L 846.2 108.270625 
Q 848.2 108.270625 848.2 106.270625 
L 848.2 33.88 
Q 848.2 31.88 846.2 31.88 
L 779.49375 31.88 
Q 777.49375 31.88 777.49375 33.88 
L 777.49375 106.270625 
Q 777.49375 108.270625 779.49375 108.270625 
z
" style="fill: #ffffff; opacity: 0.8; stroke: #cccccc; stroke-linejoin: miter"/>
    </g>
    <g id="line2d_40">
     <path d="M 781.49375 39.978437 
L 791.49375 39.978437 
L 801.49375 39.978437 
" style="fill: none; stroke: #1f77b4; stroke-width: 1.5; stroke-linecap: square"/>
    </g>
    <g id="text_36">
     <!-- run #1 -->
     <g transform="translate(809.49375 43.478437) scale(0.1 -0.1)">
      <use xlink:href="#DejaVuSans-72"/>
      <use xlink:href="#DejaVuSans-75" transform="translate(41.113281 0)"/>
      <use xlink:href="#DejaVuSans-6e" transform="translate(104.492188 0)"/>
      <use xlink:href="#DejaVuSans-20" transform="translate(167.871094 0)"/>
      <use xlink:href="#DejaVuSans-23" transform="translate(199.658203 0)"/>
      <use xlink:href="#DejaVuSans-31" transform="translate(283.447266 0)"/>
     </g>
    </g>
    <g id="line2d_41">
     <path d="M 781.49375 54.656563 
L 791.49375 54.656563 
L 801.49375 54.656563 
" style="fill: none; stroke: #ff7f0e; stroke-width: 1.5; stroke-linecap: square"/>
    </g>
    <g id="text_37">
     <!-- run #2 -->
     <g transform="translate(809.49375 58.156563) scale(0.1 -0.1)">
      <use xlink:href="#DejaVuSans-72"/>
      <use xlink:href="#DejaVuSans-75" transform="translate(41.113281 0)"/>
      <use xlink:href="#DejaVuSans-6e" transform="translate(104.492188 0)"/>
      <use xlink:href="#DejaVuSans-20" transform="translate(167.871094 0)"/>
      <use xlink:href="#DejaVuSans-23" transform="translate(199.658203 0)"/>
      <use xlink:href="#DejaVuSans-32" transform="translate(283.447266 0)"/>
     </g>
    </g>
    <g id="line2d_42">
     <path d="M 781.49375 69.334687 
L 791.49375 69.334687 
L 801.49375 69.334687 
" style="fill: none; stroke: #2ca02c; stroke-width: 1.5; stroke-linecap: square"/>
    </g>
    <g id="text_38">
     <!-- run #3 -->
     <g transform="translate(809.49375 72.834687) scale(0.1 -0.1)">
      <use xlink:href="#DejaVuSans-72"/>
      <use xlink:href="#DejaVuSans-75" transform="translate(41.113281 0)"/>
      <use xlink:href="#DejaVuSans-6e" transform="translate(104.492188 0)"/>
      <use xlink:href="#DejaVuSans-20" transform="translate(167.871094 0)"/>
      <use xlink:href="#DejaVuSans-23" transform="translate(199.658203 0)"/>
      <use xlink:href="#DejaVuSans-33" transform="translate(283.447266 0)"/>
     </g>
    </g>
    <g id="line2d_43">
     <path d="M 781.49375 84.012812 
L 791.49375 84.012812 
L 801.49375 84.012812 
" style="fill: none; stroke: #d62728; stroke-width: 1.5; stroke-linecap: square"/>
    </g>
    <g id="text_39">
     <!-- run #4 -->
     <g transform="translate(809.49375 87.512812) scale(0.1 -0.1)">
      <use xlink:href="#DejaVuSans-72"/>
      <use xlink:href="#DejaVuSans-75" transform="translate(41.113281 0)"/>
      <use xlink:href="#DejaVuSans-6e" transform="translate(104.492188 0)"/>
      <use xlink:href="#DejaVuSans-20" transform="translate(167.871094 0)"/>
      <use xlink:href="#DejaVuSans-23" transform="translate(199.658203 0)"/>
      <use xlink:href="#DejaVuSans-34" transform="translate(283.447266 0)"/>
     </g>
    </g>
    <g id="line2d_44">
     <path d="M 781.49375 98.690938 
L 791.49375 98.690938 
L 801.49375 98.690938 
" style="fill: none; stroke: #9467bd; stroke-width: 1.5; stroke-linecap: square"/>
    </g>
    <g id="text_40">
     <!-- run #5 -->
     <g transform="translate(809.49375 102.190938) scale(0.1 -0.1)">
      <use xlink:href="#DejaVuSans-72"/>
      <use xlink:href="#DejaVuSans-75" transform="translate(41.113281 0)"/>
      <use xlink:href="#DejaVuSans-6e" transform="translate(104.492188 0)"/>
      <use xlink:href="#DejaVuSans-20" transform="translate(167.871094 0)"/>
      <use xlink:href="#DejaVuSans-23" transform="translate(199.658203 0)"/>
      <use xlink:href="#DejaVuSans-35" transform="translate(283.447266 0)"/>
     </g>
    </g>
   </g>
  </g>
 </g>
 <defs>
  <clipPath id="p0d89c4c252">
   <rect x="62.39" y="26.88" width="367.405" height="363.16"/>
  </clipPath>
  <clipPath id="p3d7e7d02e3">
   <rect x="485.795" y="26.88" width="367.405" height="363.16"/>
  </clipPath>
 </defs>
</svg>
